<mxfile host="www.draw.io" modified="2020-04-15T10:08:24.496Z" agent="5.0 (Windows NT 10.0; Win64; x64) AppleWebKit/537.36 (KHTML, like Gecko) Chrome/77.0.3865.75 Safari/537.36" etag="LrklBwd3c1taM7rO6hIT" version="12.9.12" type="github">
  <diagram id="vyktFdcl2XKM1WZJkQyS" name="Page-1">
    <mxGraphModel dx="1088" dy="568" grid="1" gridSize="10" guides="1" tooltips="1" connect="1" arrows="1" fold="1" page="1" pageScale="1" pageWidth="827" pageHeight="1169" math="0" shadow="0">
      <root>
        <mxCell id="0" />
        <mxCell id="1" parent="0" />
        <mxCell id="bS8PfqRml9wUJgcqhCSN-6" value="" style="shape=umlLifeline;participant=umlEntity;perimeter=lifelinePerimeter;whiteSpace=wrap;html=1;container=1;collapsible=0;recursiveResize=0;verticalAlign=top;spacingTop=36;labelBackgroundColor=#ffffff;outlineConnect=0;fillColor=#FCF2E3;strokeColor=#000000;" vertex="1" parent="1">
          <mxGeometry x="280" width="40" height="1380" as="geometry" />
        </mxCell>
        <mxCell id="bS8PfqRml9wUJgcqhCSN-7" value="" style="html=1;points=[];perimeter=orthogonalPerimeter;strokeColor=#000000;fillColor=#FCF2E9;" vertex="1" parent="bS8PfqRml9wUJgcqhCSN-6">
          <mxGeometry x="15" y="95" width="10" height="115" as="geometry" />
        </mxCell>
        <mxCell id="bS8PfqRml9wUJgcqhCSN-15" value="" style="shape=umlLifeline;participant=umlEntity;perimeter=lifelinePerimeter;whiteSpace=wrap;html=1;container=1;collapsible=0;recursiveResize=0;verticalAlign=top;spacingTop=36;labelBackgroundColor=#ffffff;outlineConnect=0;fillColor=#FCF2E3;" vertex="1" parent="1">
          <mxGeometry x="520" width="40" height="1380" as="geometry" />
        </mxCell>
        <mxCell id="bS8PfqRml9wUJgcqhCSN-103" value="" style="html=1;points=[];perimeter=orthogonalPerimeter;fillColor=#FCF2E3;" vertex="1" parent="bS8PfqRml9wUJgcqhCSN-15">
          <mxGeometry x="15" y="110" width="10" height="1230" as="geometry" />
        </mxCell>
        <mxCell id="bS8PfqRml9wUJgcqhCSN-109" value="" style="html=1;points=[];perimeter=orthogonalPerimeter;fillColor=#FCF2E3;" vertex="1" parent="bS8PfqRml9wUJgcqhCSN-15">
          <mxGeometry x="20" y="160" width="10" height="40" as="geometry" />
        </mxCell>
        <mxCell id="bS8PfqRml9wUJgcqhCSN-110" value="消费消息数据" style="edgeStyle=orthogonalEdgeStyle;html=1;align=left;spacingLeft=2;endArrow=block;rounded=0;entryX=1;entryY=0;" edge="1" target="bS8PfqRml9wUJgcqhCSN-109" parent="bS8PfqRml9wUJgcqhCSN-15">
          <mxGeometry relative="1" as="geometry">
            <mxPoint x="25" y="140" as="sourcePoint" />
            <Array as="points">
              <mxPoint x="50" y="140" />
            </Array>
          </mxGeometry>
        </mxCell>
        <mxCell id="bS8PfqRml9wUJgcqhCSN-120" value="" style="html=1;points=[];perimeter=orthogonalPerimeter;fillColor=#FCF2E3;" vertex="1" parent="bS8PfqRml9wUJgcqhCSN-15">
          <mxGeometry x="20" y="390" width="10" height="40" as="geometry" />
        </mxCell>
        <mxCell id="bS8PfqRml9wUJgcqhCSN-121" value="查询结果数据转换" style="edgeStyle=orthogonalEdgeStyle;html=1;align=left;spacingLeft=2;endArrow=block;rounded=0;entryX=1;entryY=0;" edge="1" target="bS8PfqRml9wUJgcqhCSN-120" parent="bS8PfqRml9wUJgcqhCSN-15">
          <mxGeometry relative="1" as="geometry">
            <mxPoint x="25" y="370" as="sourcePoint" />
            <Array as="points">
              <mxPoint x="50" y="370" />
            </Array>
          </mxGeometry>
        </mxCell>
        <mxCell id="bS8PfqRml9wUJgcqhCSN-134" value="" style="html=1;points=[];perimeter=orthogonalPerimeter;fillColor=#FCF2E3;" vertex="1" parent="bS8PfqRml9wUJgcqhCSN-15">
          <mxGeometry x="20" y="743" width="10" height="40" as="geometry" />
        </mxCell>
        <mxCell id="bS8PfqRml9wUJgcqhCSN-135" value="数据转换" style="edgeStyle=orthogonalEdgeStyle;html=1;align=left;spacingLeft=2;endArrow=block;rounded=0;entryX=1;entryY=0;" edge="1" target="bS8PfqRml9wUJgcqhCSN-134" parent="bS8PfqRml9wUJgcqhCSN-15">
          <mxGeometry relative="1" as="geometry">
            <mxPoint x="25" y="723" as="sourcePoint" />
            <Array as="points">
              <mxPoint x="50" y="723" />
            </Array>
          </mxGeometry>
        </mxCell>
        <mxCell id="bS8PfqRml9wUJgcqhCSN-152" value="" style="html=1;points=[];perimeter=orthogonalPerimeter;fillColor=#FCF2E3;" vertex="1" parent="bS8PfqRml9wUJgcqhCSN-15">
          <mxGeometry x="20" y="890" width="10" height="40" as="geometry" />
        </mxCell>
        <mxCell id="bS8PfqRml9wUJgcqhCSN-153" value="数据转换" style="edgeStyle=orthogonalEdgeStyle;html=1;align=left;spacingLeft=2;endArrow=block;rounded=0;entryX=1;entryY=0;" edge="1" target="bS8PfqRml9wUJgcqhCSN-152" parent="bS8PfqRml9wUJgcqhCSN-15">
          <mxGeometry relative="1" as="geometry">
            <mxPoint x="25" y="870" as="sourcePoint" />
            <Array as="points">
              <mxPoint x="50" y="870" />
            </Array>
          </mxGeometry>
        </mxCell>
        <mxCell id="bS8PfqRml9wUJgcqhCSN-165" value="" style="html=1;points=[];perimeter=orthogonalPerimeter;fillColor=#FCF2E3;" vertex="1" parent="bS8PfqRml9wUJgcqhCSN-15">
          <mxGeometry x="20" y="1060" width="10" height="40" as="geometry" />
        </mxCell>
        <mxCell id="bS8PfqRml9wUJgcqhCSN-166" value="数据转换" style="edgeStyle=orthogonalEdgeStyle;html=1;align=left;spacingLeft=2;endArrow=block;rounded=0;entryX=1;entryY=0;" edge="1" target="bS8PfqRml9wUJgcqhCSN-165" parent="bS8PfqRml9wUJgcqhCSN-15">
          <mxGeometry relative="1" as="geometry">
            <mxPoint x="25" y="1040" as="sourcePoint" />
            <Array as="points">
              <mxPoint x="50" y="1040" />
            </Array>
          </mxGeometry>
        </mxCell>
        <mxCell id="bS8PfqRml9wUJgcqhCSN-172" value="" style="html=1;points=[];perimeter=orthogonalPerimeter;fillColor=#FCF2E3;" vertex="1" parent="bS8PfqRml9wUJgcqhCSN-15">
          <mxGeometry x="20" y="1250" width="10" height="40" as="geometry" />
        </mxCell>
        <mxCell id="bS8PfqRml9wUJgcqhCSN-173" value="组装转换数据生成结算分账单" style="edgeStyle=orthogonalEdgeStyle;html=1;align=left;spacingLeft=2;endArrow=block;rounded=0;entryX=1;entryY=0;" edge="1" target="bS8PfqRml9wUJgcqhCSN-172" parent="bS8PfqRml9wUJgcqhCSN-15">
          <mxGeometry relative="1" as="geometry">
            <mxPoint x="25" y="1230" as="sourcePoint" />
            <Array as="points">
              <mxPoint x="50" y="1230" />
            </Array>
          </mxGeometry>
        </mxCell>
        <mxCell id="bS8PfqRml9wUJgcqhCSN-23" value="" style="shape=umlLifeline;participant=umlEntity;perimeter=lifelinePerimeter;whiteSpace=wrap;html=1;container=1;collapsible=0;recursiveResize=0;verticalAlign=top;spacingTop=36;labelBackgroundColor=#ffffff;outlineConnect=0;fillColor=#FCF2E3;" vertex="1" parent="1">
          <mxGeometry x="760" width="40" height="1380" as="geometry" />
        </mxCell>
        <mxCell id="bS8PfqRml9wUJgcqhCSN-25" value="" style="html=1;points=[];perimeter=orthogonalPerimeter;strokeColor=#000000;fillColor=#FCF2E9;fontSize=11;" vertex="1" parent="bS8PfqRml9wUJgcqhCSN-23">
          <mxGeometry x="15" y="440" width="10" height="130" as="geometry" />
        </mxCell>
        <mxCell id="bS8PfqRml9wUJgcqhCSN-124" value="" style="html=1;points=[];perimeter=orthogonalPerimeter;fillColor=#FCF2E3;" vertex="1" parent="bS8PfqRml9wUJgcqhCSN-23">
          <mxGeometry x="22" y="480" width="10" height="40" as="geometry" />
        </mxCell>
        <mxCell id="bS8PfqRml9wUJgcqhCSN-125" value="查询商品详情" style="edgeStyle=orthogonalEdgeStyle;html=1;align=left;spacingLeft=2;endArrow=block;rounded=0;entryX=1;entryY=0;" edge="1" target="bS8PfqRml9wUJgcqhCSN-124" parent="bS8PfqRml9wUJgcqhCSN-23">
          <mxGeometry relative="1" as="geometry">
            <mxPoint x="27" y="460" as="sourcePoint" />
            <Array as="points">
              <mxPoint x="52" y="460" />
            </Array>
          </mxGeometry>
        </mxCell>
        <mxCell id="bS8PfqRml9wUJgcqhCSN-33" value="&lt;b&gt;订单qds-order&lt;/b&gt;" style="text;html=1;resizable=0;autosize=1;align=center;verticalAlign=middle;points=[];fillColor=#FFFFFF;strokeColor=#FFFFFF;rounded=0;" vertex="1" parent="1">
          <mxGeometry x="250" y="40" width="100" height="20" as="geometry" />
        </mxCell>
        <mxCell id="bS8PfqRml9wUJgcqhCSN-34" value="&lt;b&gt;结算qds-merchant-settlement&lt;/b&gt;" style="text;html=1;resizable=0;autosize=1;align=center;verticalAlign=middle;points=[];fillColor=#FFFFFF;strokeColor=#FFFFFF;rounded=0;" vertex="1" parent="1">
          <mxGeometry x="450" y="40" width="180" height="20" as="geometry" />
        </mxCell>
        <mxCell id="bS8PfqRml9wUJgcqhCSN-37" value="&lt;b&gt;商品qds-waret&lt;/b&gt;" style="text;html=1;resizable=0;autosize=1;align=center;verticalAlign=middle;points=[];fillColor=#FFFFFF;strokeColor=#FFFFFF;rounded=0;" vertex="1" parent="1">
          <mxGeometry x="737" y="40" width="100" height="20" as="geometry" />
        </mxCell>
        <mxCell id="bS8PfqRml9wUJgcqhCSN-41" value="" style="html=1;points=[];perimeter=orthogonalPerimeter;strokeColor=#000000;fillColor=#FCF2E9;fontSize=11;" vertex="1" parent="1">
          <mxGeometry x="295" y="230" width="10" height="150" as="geometry" />
        </mxCell>
        <mxCell id="bS8PfqRml9wUJgcqhCSN-44" value="" style="shape=umlLifeline;participant=umlEntity;perimeter=lifelinePerimeter;whiteSpace=wrap;html=1;container=1;collapsible=0;recursiveResize=0;verticalAlign=top;spacingTop=36;labelBackgroundColor=#ffffff;outlineConnect=0;fillColor=#FCF2E3;" vertex="1" parent="1">
          <mxGeometry x="999" width="40" height="1380" as="geometry" />
        </mxCell>
        <mxCell id="bS8PfqRml9wUJgcqhCSN-45" value="" style="html=1;points=[];perimeter=orthogonalPerimeter;strokeColor=#000000;fillColor=#FCF2E9;fontSize=11;" vertex="1" parent="bS8PfqRml9wUJgcqhCSN-44">
          <mxGeometry x="15" y="610" width="10" height="110" as="geometry" />
        </mxCell>
        <mxCell id="bS8PfqRml9wUJgcqhCSN-130" value="" style="html=1;points=[];perimeter=orthogonalPerimeter;fillColor=#FCF2E3;" vertex="1" parent="bS8PfqRml9wUJgcqhCSN-44">
          <mxGeometry x="20" y="648" width="10" height="40" as="geometry" />
        </mxCell>
        <mxCell id="bS8PfqRml9wUJgcqhCSN-131" value="查询物业商家分账比例" style="edgeStyle=orthogonalEdgeStyle;html=1;align=left;spacingLeft=2;endArrow=block;rounded=0;entryX=1;entryY=0;" edge="1" target="bS8PfqRml9wUJgcqhCSN-130" parent="bS8PfqRml9wUJgcqhCSN-44">
          <mxGeometry relative="1" as="geometry">
            <mxPoint x="25" y="628" as="sourcePoint" />
            <Array as="points">
              <mxPoint x="50" y="628" />
            </Array>
          </mxGeometry>
        </mxCell>
        <mxCell id="bS8PfqRml9wUJgcqhCSN-136" value="" style="html=1;points=[];perimeter=orthogonalPerimeter;fillColor=#FCF2E3;" vertex="1" parent="bS8PfqRml9wUJgcqhCSN-44">
          <mxGeometry x="15" y="750" width="10" height="110" as="geometry" />
        </mxCell>
        <mxCell id="bS8PfqRml9wUJgcqhCSN-137" value="" style="html=1;points=[];perimeter=orthogonalPerimeter;fillColor=#FCF2E3;" vertex="1" parent="bS8PfqRml9wUJgcqhCSN-44">
          <mxGeometry x="20" y="785" width="10" height="40" as="geometry" />
        </mxCell>
        <mxCell id="bS8PfqRml9wUJgcqhCSN-138" value="商家电银商户号" style="edgeStyle=orthogonalEdgeStyle;html=1;align=left;spacingLeft=2;endArrow=block;rounded=0;entryX=1;entryY=0;" edge="1" target="bS8PfqRml9wUJgcqhCSN-137" parent="bS8PfqRml9wUJgcqhCSN-44">
          <mxGeometry relative="1" as="geometry">
            <mxPoint x="25" y="765" as="sourcePoint" />
            <Array as="points">
              <mxPoint x="50" y="765" />
            </Array>
          </mxGeometry>
        </mxCell>
        <mxCell id="bS8PfqRml9wUJgcqhCSN-48" value="&lt;b&gt;店铺qdd-server-shop&lt;/b&gt;" style="text;html=1;resizable=0;autosize=1;align=center;verticalAlign=middle;points=[];fillColor=#FFFFFF;strokeColor=#FFFFFF;rounded=0;" vertex="1" parent="1">
          <mxGeometry x="956" y="40" width="130" height="20" as="geometry" />
        </mxCell>
        <mxCell id="bS8PfqRml9wUJgcqhCSN-49" value="" style="shape=umlLifeline;participant=umlEntity;perimeter=lifelinePerimeter;whiteSpace=wrap;html=1;container=1;collapsible=0;recursiveResize=0;verticalAlign=top;spacingTop=36;labelBackgroundColor=#ffffff;outlineConnect=0;fillColor=#FCF2E3;" vertex="1" parent="1">
          <mxGeometry x="1245" width="40" height="1380" as="geometry" />
        </mxCell>
        <mxCell id="bS8PfqRml9wUJgcqhCSN-50" value="" style="html=1;points=[];perimeter=orthogonalPerimeter;strokeColor=#000000;fillColor=#FCF2E9;fontSize=11;" vertex="1" parent="bS8PfqRml9wUJgcqhCSN-49">
          <mxGeometry x="15" y="1062" width="10" height="158" as="geometry" />
        </mxCell>
        <mxCell id="bS8PfqRml9wUJgcqhCSN-168" value="" style="html=1;points=[];perimeter=orthogonalPerimeter;fillColor=#FCF2E3;" vertex="1" parent="bS8PfqRml9wUJgcqhCSN-49">
          <mxGeometry x="21" y="1142" width="10" height="40" as="geometry" />
        </mxCell>
        <mxCell id="bS8PfqRml9wUJgcqhCSN-169" value="查询物业公司自护信息" style="edgeStyle=orthogonalEdgeStyle;html=1;align=left;spacingLeft=2;endArrow=block;rounded=0;entryX=1;entryY=0;" edge="1" target="bS8PfqRml9wUJgcqhCSN-168" parent="bS8PfqRml9wUJgcqhCSN-49">
          <mxGeometry relative="1" as="geometry">
            <mxPoint x="26" y="1122" as="sourcePoint" />
            <Array as="points">
              <mxPoint x="51" y="1122" />
            </Array>
          </mxGeometry>
        </mxCell>
        <mxCell id="bS8PfqRml9wUJgcqhCSN-53" value="&lt;b&gt;基础数据qds-brick&lt;/b&gt;" style="text;html=1;resizable=0;autosize=1;align=center;verticalAlign=middle;points=[];fillColor=#FFFFFF;strokeColor=#FFFFFF;rounded=0;" vertex="1" parent="1">
          <mxGeometry x="1205" y="40" width="120" height="20" as="geometry" />
        </mxCell>
        <mxCell id="bS8PfqRml9wUJgcqhCSN-69" value="" style="shape=umlLifeline;participant=umlEntity;perimeter=lifelinePerimeter;whiteSpace=wrap;html=1;container=1;collapsible=0;recursiveResize=0;verticalAlign=top;spacingTop=36;labelBackgroundColor=#ffffff;outlineConnect=0;fillColor=#FCF2E3;" vertex="1" parent="1">
          <mxGeometry x="1485" width="40" height="1380" as="geometry" />
        </mxCell>
        <mxCell id="bS8PfqRml9wUJgcqhCSN-155" value="" style="html=1;points=[];perimeter=orthogonalPerimeter;fillColor=#FCF2E3;" vertex="1" parent="bS8PfqRml9wUJgcqhCSN-69">
          <mxGeometry x="16" y="900" width="10" height="180" as="geometry" />
        </mxCell>
        <mxCell id="bS8PfqRml9wUJgcqhCSN-160" value="" style="html=1;points=[];perimeter=orthogonalPerimeter;fillColor=#FCF2E3;" vertex="1" parent="bS8PfqRml9wUJgcqhCSN-69">
          <mxGeometry x="21" y="970" width="10" height="40" as="geometry" />
        </mxCell>
        <mxCell id="bS8PfqRml9wUJgcqhCSN-161" value="物业电银商户号" style="edgeStyle=orthogonalEdgeStyle;html=1;align=left;spacingLeft=2;endArrow=block;rounded=0;entryX=1;entryY=0;" edge="1" target="bS8PfqRml9wUJgcqhCSN-160" parent="bS8PfqRml9wUJgcqhCSN-69">
          <mxGeometry relative="1" as="geometry">
            <mxPoint x="26" y="950" as="sourcePoint" />
            <Array as="points">
              <mxPoint x="51" y="950" />
            </Array>
          </mxGeometry>
        </mxCell>
        <mxCell id="bS8PfqRml9wUJgcqhCSN-74" value="&lt;b&gt;支付qdp-pay&lt;/b&gt;" style="text;html=1;resizable=0;autosize=1;align=center;verticalAlign=middle;points=[];fillColor=#FFFFFF;strokeColor=#FFFFFF;rounded=0;" vertex="1" parent="1">
          <mxGeometry x="1461" y="40" width="90" height="20" as="geometry" />
        </mxCell>
        <mxCell id="bS8PfqRml9wUJgcqhCSN-105" value="返回成功" style="html=1;verticalAlign=bottom;endArrow=open;dashed=1;endSize=8;entryX=1.2;entryY=0.791;entryDx=0;entryDy=0;entryPerimeter=0;" edge="1" parent="1">
          <mxGeometry relative="1" as="geometry">
            <mxPoint x="306" y="185.96500000000003" as="targetPoint" />
            <mxPoint x="531" y="186" as="sourcePoint" />
          </mxGeometry>
        </mxCell>
        <mxCell id="bS8PfqRml9wUJgcqhCSN-111" value="查询订单/退款详情" style="html=1;verticalAlign=bottom;endArrow=block;entryX=0.9;entryY=0.25;entryDx=0;entryDy=0;entryPerimeter=0;" edge="1" parent="1">
          <mxGeometry width="80" relative="1" as="geometry">
            <mxPoint x="532" y="250" as="sourcePoint" />
            <mxPoint x="306" y="250" as="targetPoint" />
          </mxGeometry>
        </mxCell>
        <mxCell id="bS8PfqRml9wUJgcqhCSN-112" value="" style="html=1;points=[];perimeter=orthogonalPerimeter;fillColor=#FCF2E3;" vertex="1" parent="1">
          <mxGeometry x="300" y="310" width="10" height="40" as="geometry" />
        </mxCell>
        <mxCell id="bS8PfqRml9wUJgcqhCSN-113" value="订单数据查询" style="edgeStyle=orthogonalEdgeStyle;html=1;align=left;spacingLeft=2;endArrow=block;rounded=0;entryX=1;entryY=0;" edge="1" target="bS8PfqRml9wUJgcqhCSN-112" parent="1">
          <mxGeometry relative="1" as="geometry">
            <mxPoint x="305" y="290" as="sourcePoint" />
            <Array as="points">
              <mxPoint x="330" y="290" />
            </Array>
          </mxGeometry>
        </mxCell>
        <mxCell id="bS8PfqRml9wUJgcqhCSN-115" value="返回订单/退款数据" style="html=1;verticalAlign=bottom;endArrow=open;dashed=1;endSize=8;exitX=0.9;exitY=0.853;exitDx=0;exitDy=0;exitPerimeter=0;" edge="1" parent="1">
          <mxGeometry relative="1" as="geometry">
            <mxPoint x="307" y="357.01" as="sourcePoint" />
            <mxPoint x="536" y="357" as="targetPoint" />
            <Array as="points">
              <mxPoint x="363" y="357" />
            </Array>
          </mxGeometry>
        </mxCell>
        <mxCell id="bS8PfqRml9wUJgcqhCSN-119" value="订单支付/退款完成" style="html=1;verticalAlign=bottom;endArrow=block;entryX=0;entryY=0;fontSize=11;" edge="1" parent="1">
          <mxGeometry relative="1" as="geometry">
            <mxPoint x="306" y="120" as="sourcePoint" />
            <mxPoint x="536" y="120.00000000000091" as="targetPoint" />
          </mxGeometry>
        </mxCell>
        <mxCell id="bS8PfqRml9wUJgcqhCSN-126" value="查询商品详情" style="html=1;verticalAlign=bottom;endArrow=block;entryX=0;entryY=0;fontSize=11;" edge="1" parent="1">
          <mxGeometry relative="1" as="geometry">
            <mxPoint x="546" y="460" as="sourcePoint" />
            <mxPoint x="776" y="460.0000000000009" as="targetPoint" />
          </mxGeometry>
        </mxCell>
        <mxCell id="bS8PfqRml9wUJgcqhCSN-127" value="返回商品数据" style="html=1;verticalAlign=bottom;endArrow=open;dashed=1;endSize=8;entryX=1.2;entryY=0.791;entryDx=0;entryDy=0;entryPerimeter=0;" edge="1" parent="1">
          <mxGeometry relative="1" as="geometry">
            <mxPoint x="547" y="539.995" as="targetPoint" />
            <mxPoint x="772" y="540.03" as="sourcePoint" />
          </mxGeometry>
        </mxCell>
        <mxCell id="bS8PfqRml9wUJgcqhCSN-132" value="查询商品详情" style="html=1;verticalAlign=bottom;endArrow=block;fontSize=11;" edge="1" parent="1">
          <mxGeometry relative="1" as="geometry">
            <mxPoint x="545" y="616" as="sourcePoint" />
            <mxPoint x="1015" y="616" as="targetPoint" />
          </mxGeometry>
        </mxCell>
        <mxCell id="bS8PfqRml9wUJgcqhCSN-133" value="返回商家物业分账比例" style="html=1;verticalAlign=bottom;endArrow=open;dashed=1;endSize=8;" edge="1" parent="1">
          <mxGeometry relative="1" as="geometry">
            <mxPoint x="543.5" y="696" as="targetPoint" />
            <mxPoint x="1014" y="696" as="sourcePoint" />
          </mxGeometry>
        </mxCell>
        <mxCell id="bS8PfqRml9wUJgcqhCSN-139" value="查询商家电银商户号" style="html=1;verticalAlign=bottom;endArrow=block;fontSize=11;" edge="1" parent="1">
          <mxGeometry relative="1" as="geometry">
            <mxPoint x="546" y="795" as="sourcePoint" />
            <mxPoint x="1016" y="795" as="targetPoint" />
          </mxGeometry>
        </mxCell>
        <mxCell id="bS8PfqRml9wUJgcqhCSN-151" value="返回商家电银商户号" style="html=1;verticalAlign=bottom;endArrow=open;dashed=1;endSize=8;" edge="1" parent="1">
          <mxGeometry relative="1" as="geometry">
            <mxPoint x="541.5" y="840" as="targetPoint" />
            <mxPoint x="1012" y="840" as="sourcePoint" />
          </mxGeometry>
        </mxCell>
        <mxCell id="bS8PfqRml9wUJgcqhCSN-162" value="查询物业电银商户号" style="html=1;verticalAlign=bottom;endArrow=block;fontSize=11;" edge="1" parent="1">
          <mxGeometry relative="1" as="geometry">
            <mxPoint x="546" y="950" as="sourcePoint" />
            <mxPoint x="1501" y="950" as="targetPoint" />
          </mxGeometry>
        </mxCell>
        <mxCell id="bS8PfqRml9wUJgcqhCSN-164" value="返回物业电银商户号" style="html=1;verticalAlign=bottom;endArrow=open;dashed=1;endSize=8;" edge="1" parent="1">
          <mxGeometry relative="1" as="geometry">
            <mxPoint x="546" y="1020" as="targetPoint" />
            <mxPoint x="1500" y="1020" as="sourcePoint" />
          </mxGeometry>
        </mxCell>
        <mxCell id="bS8PfqRml9wUJgcqhCSN-167" value="查询商家电银商户号" style="html=1;verticalAlign=bottom;endArrow=block;fontSize=11;" edge="1" parent="1">
          <mxGeometry relative="1" as="geometry">
            <mxPoint x="546" y="1120" as="sourcePoint" />
            <mxPoint x="1262" y="1120" as="targetPoint" />
          </mxGeometry>
        </mxCell>
        <mxCell id="bS8PfqRml9wUJgcqhCSN-171" value="返回租户/物业公司信息" style="html=1;verticalAlign=bottom;endArrow=open;dashed=1;endSize=8;" edge="1" parent="1">
          <mxGeometry relative="1" as="geometry">
            <mxPoint x="544.5" y="1200" as="targetPoint" />
            <mxPoint x="1255" y="1200" as="sourcePoint" />
          </mxGeometry>
        </mxCell>
      </root>
    </mxGraphModel>
  </diagram>
</mxfile>
